PathFileType	4	(X/Y/Z)	/Users/itak/Documents/Research/Walk-IL/dataset/trc/00476_00167.trc
DataRate	CameraRate	NumFrames	NumMarkers	Units	OrigDataRate	OrigDataStartFrame	OrigNumFrames
100.000000	100.000000	4	53	mm	100.000000	70	560
Frame#	Time	RPSI			LPSI			L3			STRN			T10			C7			CLAV			RBAK			LBAK			LSHO			LUPA			LAEL			LAOL			LWTS			LWPS			LFRA			LIFD			LHPS			LHTS			RSHO			RUPA			RAEL			RAOL			RWTS			RWPS			RFRA			RIFD			RHTS			RHPS			RBHD			LFHD			RFHD			LBHD			LHIP			RHIP			RASI			LASI			LKNE			LTHI			LANK			LTIP			LTOE			LMT1			LMT5			LHEE			RKNE			RTHI			RANK			RTIP			RTOE			RMT1			RMT5			RHEE			
		X1	Y1	Z1	X2	Y2	Z2	X3	Y3	Z3	X4	Y4	Z4	X5	Y5	Z5	X6	Y6	Z6	X7	Y7	Z7	X8	Y8	Z8	X9	Y9	Z9	X10	Y10	Z10	X11	Y11	Z11	X12	Y12	Z12	X13	Y13	Z13	X14	Y14	Z14	X15	Y15	Z15	X16	Y16	Z16	X17	Y17	Z17	X18	Y18	Z18	X19	Y19	Z19	X20	Y20	Z20	X21	Y21	Z21	X22	Y22	Z22	X23	Y23	Z23	X24	Y24	Z24	X25	Y25	Z25	X26	Y26	Z26	X27	Y27	Z27	X28	Y28	Z28	X29	Y29	Z29	X30	Y30	Z30	X31	Y31	Z31	X32	Y32	Z32	X33	Y33	Z33	X34	Y34	Z34	X35	Y35	Z35	X36	Y36	Z36	X37	Y37	Z37	X38	Y38	Z38	X39	Y39	Z39	X40	Y40	Z40	X41	Y41	Z41	X42	Y42	Z42	X43	Y43	Z43	X44	Y44	Z44	X45	Y45	Z45	X46	Y46	Z46	X47	Y47	Z47	X48	Y48	Z48	X49	Y49	Z49	X50	Y50	Z50	X51	Y51	Z51	X52	Y52	Z52	X53	Y53	Z53	

71	0.7000000000000001	-1331.352905273438	966.9305419921875	-93.66462707519531	-1313.434204101562	965.7529296875	-233.8503570556641	-1310.541015625	1059.315551757812	-147.5929870605469	-1046.161376953125	1253.459350585938	-120.8663558959961	-1329.56689453125	1182.234375	-153.5140838623047	-1266.566528320312	1449.924072265625	-127.0049133300781	-1082.551025390625	1366.4462890625	-123.9151611328125	-1339.817993164062	1328.104858398438	-42.74794006347656	-1289.822631835938	1406.463012695312	-231.3968658447266	-1178.462890625	1429.911499023438	-298.1939697265625	-1173.973266601562	1312.325317382812	-399.1339416503906	-1142.210205078125	1094.43359375	-425.7076110839844	-1232.04736328125	1079.546142578125	-376.4089050292969	-1066.179931640625	895.1405639648438	-363.4985656738281	-1101.820678710938	880.0341796875	-427.6141662597656	-1117.189208984375	1007.035583496094	-429.4253234863281	-1054.813232421875	736.284423828125	-380.0569152832031	-1091.974975585938	804.7724609375	-430.2682189941406	-1047.738525390625	810.3011474609375	-373.3618469238281	-1215.259033203125	1414.948486328125	38.72817611694336	-1240.516723632812	1353.524047851562	111.4465408325195	-1245.931518554688	1063.701293945312	160.7162170410156	-1292.490600585938	1047.236450195312	114.4460601806641	-1135.09228515625	861.4823608398438	121.3536224365234	-1207.692749023438	844.7654418945312	171.3269805908203	-1242.553955078125	1004.547546386719	169.127197265625	-1132.484008789062	705.0408325195312	130.1716461181641	-1117.67431640625	764.4109497070312	135.3133850097656	-1188.914916992188	758.9412231445312	170.5027770996094	-1190.653442382812	1646.804321289062	-27.57265853881836	-1029.319458007812	1656.989135742188	-157.4964294433594	-1052.639770507812	1655.918090820312	-28.91413116455078	-1175.254028320312	1653.583251953125	-204.7286376953125	-1168.692993164062	866.4678344726562	-337.7606811523438	-1234.852294921875	861.1306762695312	55.37525939941406	-1120.18359375	899.5827026367188	9.524961471557617	-1077.393432617188	899.34814453125	-246.6750793457031	-1176.9580078125	447.6390380859375	-320.6890563964844	-1145.607299804688	599.1741333007812	-333.1756896972656	-1251.63916015625	42.21135330200195	-339.9409790039062	-1186.82275390625	302.3281555175781	-341.2460021972656	-1028.177368164062	43.84589385986328	-243.5414428710938	-1108.126342773438	50.63361740112305	-224.7106781005859	-1096.674560546875	48.11698150634766	-337.0017395019531	-1303.543334960938	44.70448684692383	-281.935791015625	-1222.335327148438	470.1643371582031	33.80066680908203	-1195.010375976562	727.83203125	72.78407287597656	-1285.279541015625	44.79729461669922	35.8284912109375	-1225.527709960938	326.7080078125	44.85514831542969	-1068.6142578125	49.25098037719727	2.780145406723022	-1128.65234375	52.92070388793945	-39.08950042724609	-1153.808837890625	48.62698364257812	68.48613739013672	-1347.599243164062	36.32391357421875	-11.304443359375	
72	0.71	-1331.104125976562	966.9588623046875	-93.77028656005859	-1313.169189453125	965.7708740234375	-233.9524993896484	-1310.258056640625	1059.344848632812	-147.7871856689453	-1045.7158203125	1253.4169921875	-121.2505950927734	-1329.284790039062	1182.271118164062	-153.7699737548828	-1266.133178710938	1449.938842773438	-127.4021072387695	-1082.149291992188	1366.446166992188	-124.3750381469727	-1339.385131835938	1328.186767578125	-43.0599250793457	-1289.454223632812	1406.442138671875	-231.7729339599609	-1178.127197265625	1429.86962890625	-298.6285705566406	-1173.751342773438	1312.316650390625	-399.5789489746094	-1142.127685546875	1094.3837890625	-426.2754821777344	-1231.879150390625	1079.541625976562	-376.8600463867188	-1066.228637695312	895.0012817382812	-364.1453552246094	-1101.807373046875	880.0059814453125	-428.3056335449219	-1117.13134765625	1006.978637695312	-430.0137939453125	-1054.974365234375	736.1406860351562	-380.8547973632812	-1092.025390625	804.6987915039062	-430.9650268554688	-1047.761962890625	810.2281494140625	-374.107666015625	-1214.781616210938	1415.095458984375	38.31205749511719	-1240.018920898438	1353.710815429688	111.0981369018555	-1245.351196289062	1063.865234375	160.4906005859375	-1291.884887695312	1047.3701171875	114.1952362060547	-1134.327270507812	861.6836547851562	121.0402221679688	-1206.921875	844.9475708007812	171.0962829589844	-1241.92138671875	1004.701965332031	168.8799438476562	-1131.631225585938	705.2785034179688	129.9154663085938	-1116.779174804688	764.6677856445312	134.9703063964844	-1188.068115234375	759.1294555664062	170.2208862304688	-1189.399291992188	1646.817749023438	-27.82186126708984	-1028.6259765625	1656.634765625	-158.4355773925781	-1051.330322265625	1655.541870117188	-29.77275466918945	-1174.725219726562	1653.675537109375	-205.0286560058594	-1168.421875	866.4605712890625	-337.9054565429688	-1234.627075195312	861.1548461914062	55.27600860595703	-1119.890380859375	899.59814453125	9.376885414123535	-1077.159790039062	899.3284301757812	-246.8059997558594	-1176.875610351562	447.5916748046875	-320.7761535644531	-1145.449462890625	599.16357421875	-333.3021240234375	-1251.631469726562	42.19633865356445	-339.95654296875	-1186.737182617188	302.2862243652344	-341.3182373046875	-1028.205322265625	43.85633087158203	-243.5345611572266	-1108.126708984375	50.6358642578125	-224.7144317626953	-1096.680908203125	48.11241149902344	-337.0052795410156	-1303.548828125	44.70306777954102	-281.9365844726562	-1222.205932617188	470.180908203125	33.75230407714844	-1194.82275390625	727.8599853515625	72.69686126708984	-1285.28466796875	44.79526901245117	35.83897399902344	-1225.435424804688	326.7088012695312	44.82222366333008	-1068.616577148438	49.25214767456055	2.77269458770752	-1128.6533203125	52.92226028442383	-39.0887565612793	-1153.804931640625	48.62615585327148	68.49074554443359	-1347.595703125	36.32346725463867	-11.29890441894531	
73	0.72	-1330.848510742188	966.9900512695312	-93.88469696044922	-1312.901123046875	965.789306640625	-234.0701141357422	-1309.963989257812	1059.382202148438	-147.993896484375	-1045.3017578125	1253.358764648438	-121.6692352294922	-1328.992065429688	1182.315551757812	-154.0339965820312	-1265.67138671875	1449.95556640625	-127.8203506469727	-1081.74072265625	1366.43505859375	-124.8575592041016	-1338.93115234375	1328.282470703125	-43.37442779541016	-1289.062377929688	1406.424072265625	-232.1667175292969	-1177.766723632812	1429.815551757812	-299.0773620605469	-1173.532592773438	1312.297729492188	-400.0496826171875	-1142.048583984375	1094.322509765625	-426.869140625	-1231.705200195312	1079.5185546875	-377.3248596191406	-1066.322509765625	894.8179931640625	-364.7934265136719	-1101.755737304688	879.9646606445312	-429.0172119140625	-1117.0556640625	1006.911743164062	-430.6280517578125	-1055.056396484375	735.98583984375	-381.669921875	-1092.057250976562	804.6205444335938	-431.6866149902344	-1047.72412109375	810.1719360351562	-374.8692932128906	-1214.278442382812	1415.250854492188	37.87892150878906	-1239.484252929688	1353.907348632812	110.7273483276367	-1244.752197265625	1064.034790039062	160.2485656738281	-1291.261962890625	1047.51025390625	113.9289474487305	-1133.588745117188	861.87548828125	120.704833984375	-1206.131713867188	845.1324462890625	170.8375396728516	-1241.267822265625	1004.870239257812	168.6071929931641	-1130.7646484375	705.525390625	129.6194610595703	-1115.895385742188	764.9236450195312	134.6123962402344	-1187.215698242188	759.3316650390625	169.9292449951172	-1188.170654296875	1646.836547851562	-28.11381340026855	-1027.919555664062	1656.309936523438	-159.3627014160156	-1050.055908203125	1655.185424804688	-30.63147926330566	-1174.1591796875	1653.757568359375	-205.3615875244141	-1168.15087890625	866.4490356445312	-338.0802612304688	-1234.379028320312	861.1748657226562	55.14323043823242	-1119.559692382812	899.6206665039062	9.198683738708496	-1076.92138671875	899.305419921875	-246.96484375	-1176.7900390625	447.5504455566406	-320.852783203125	-1145.2763671875	599.1554565429688	-333.4310607910156	-1251.625	42.17978668212891	-339.9706420898438	-1186.6484375	302.2363891601562	-341.3976440429688	-1028.233520507812	43.86736297607422	-243.5275115966797	-1108.122802734375	50.64190292358398	-224.7190704345703	-1096.686645507812	48.10872268676758	-337.0068054199219	-1303.5537109375	44.70123291015625	-281.9369201660156	-1222.06689453125	470.1940002441406	33.69211959838867	-1194.638916015625	727.8900146484375	72.61404418945312	-1285.288818359375	44.79422760009766	35.84851455688477	-1225.338989257812	326.7102355957031	44.78237915039062	-1068.618530273438	49.25334548950195	2.766821146011353	-1128.65380859375	52.92319488525391	-39.08871841430664	-1153.802124023438	48.62717437744141	68.49462890625	-1347.592529296875	36.32382583618164	-11.29313850402832	
74	0.73	-1330.580932617188	967.0228881835938	-94.01851654052734	-1312.629760742188	965.8073120117188	-234.2116546630859	-1309.657958984375	1059.427124023438	-148.2118377685547	-1044.913452148438	1253.29150390625	-122.1198501586914	-1328.688232421875	1182.367553710938	-154.3025360107422	-1265.17919921875	1449.975830078125	-128.2569427490234	-1081.3232421875	1366.412353515625	-125.3631744384766	-1338.456665039062	1328.392822265625	-43.68869781494141	-1288.643676757812	1406.410522460938	-232.57568359375	-1177.374633789062	1429.748779296875	-299.5379333496094	-1173.300415039062	1312.264526367188	-400.5408020019531	-1141.957641601562	1094.247924804688	-427.4783020019531	-1231.51953125	1079.476928710938	-377.8071899414062	-1066.419799804688	894.6025390625	-365.4428405761719	-1101.669189453125	879.9044799804688	-429.7415161132812	-1116.96044921875	1006.835327148438	-431.2606201171875	-1055.057006835938	735.8187255859375	-382.4954528808594	-1092.073608398438	804.53515625	-432.4297180175781	-1047.634033203125	810.1165161132812	-375.6343688964844	-1213.743896484375	1415.411743164062	37.43003082275391	-1238.910888671875	1354.109741210938	110.3405990600586	-1244.132934570312	1064.210327148438	159.9912261962891	-1290.630493164062	1047.656005859375	113.6606674194336	-1132.88427734375	862.0601196289062	120.3525772094727	-1205.329223632812	845.3207397460938	170.5564117431641	-1240.595703125	1005.050903320312	168.3176574707031	-1129.893920898438	705.7811279296875	129.2884674072266	-1115.03564453125	765.1771240234375	134.2457427978516	-1186.359008789062	759.5472412109375	169.6291198730469	-1186.974975585938	1646.859619140625	-28.45485496520996	-1027.19775390625	1656.009521484375	-160.2772369384766	-1048.830322265625	1654.847412109375	-31.48906326293945	-1173.558227539062	1653.823364257812	-205.7319641113281	-1167.880493164062	866.4332885742188	-338.2817687988281	-1234.107177734375	861.1898193359375	54.97210693359375	-1119.200439453125	899.6461791992188	8.993271827697754	-1076.6787109375	899.28125	-247.1485290527344	-1176.700561523438	447.5203247070312	-320.9189147949219	-1145.091674804688	599.14697265625	-333.5593872070312	-1251.620849609375	42.16211318969727	-339.9835205078125	-1186.556518554688	302.181396484375	-341.4825134277344	-1028.258911132812	43.87709045410156	-243.5227966308594	-1108.11669921875	50.65015411376953	-224.7234954833984	-1096.690673828125	48.10642242431641	-337.0064086914062	-1303.557983398438	44.69960403442383	-281.9369201660156	-1221.919311523438	470.2035217285156	33.61845397949219	-1194.453857421875	727.9204711914062	72.52647399902344	-1285.291137695312	44.79389572143555	35.8561897277832	-1225.239379882812	326.7122802734375	44.73393630981445	-1068.619750976562	49.25489807128906	2.762148380279541	-1128.654174804688	52.92369842529297	-39.08893966674805	-1153.800537109375	48.62915420532227	68.49763488769531	-1347.590454101562	36.32543182373047	-11.28751468658447	
